<svg width="0" height="0" class="hidden">
  <symbol xmlns="http://www.w3.org/2000/svg" viewBox="0 0 48 48" id="icon1">
    <g clip-path="url(#clip0_1_42)">
      <path d="M42.5886 12.5253H37.519V7.45567C37.519 6.55931 37.1629 5.69966 36.5291 5.06583C35.8952 4.43201 35.0356 4.07593 34.1392 4.07593H13.8608C12.9644 4.07593 12.1047 4.43201 11.4709 5.06583C10.8371 5.69966 10.481 6.55931 10.481 7.45567V12.5253H5.41139C4.06684 12.5253 2.77736 13.0594 1.82662 14.0102C0.875886 14.9609 0.341766 16.2504 0.341766 17.5949V41.2531C0.341766 42.1495 0.697846 43.0092 1.33167 43.643C1.9655 44.2768 2.82515 44.6329 3.72151 44.6329H44.2785C45.1748 44.6329 46.0345 44.2768 46.6683 43.643C47.3021 43.0092 47.6582 42.1495 47.6582 41.2531V17.5949C47.6582 16.2504 47.1241 14.9609 46.1734 14.0102C45.2226 13.0594 43.9331 12.5253 42.5886 12.5253ZM13.8608 7.45567H34.1392V12.5253H13.8608V7.45567ZM44.2785 41.2531H3.72151V26.0443H17.2405V34.4936H30.7595V26.0443H44.2785V41.2531ZM20.6202 26.0443H27.3797V31.1139H20.6202V26.0443ZM3.72151 22.6645V17.5949C3.72151 17.1467 3.89955 16.7169 4.21647 16.4C4.53338 16.0831 4.9632 15.905 5.41139 15.905H42.5886C43.0368 15.905 43.4666 16.0831 43.7835 16.4C44.1004 16.7169 44.2785 17.1467 44.2785 17.5949V22.6645H3.72151Z"></path>
    </g>
    <defs>
      <clipPath id="clip0_1_42">
        <rect width="48" height="40.7089" fill="white" transform="translate(0 4)"></rect>
      </clipPath>
    </defs>
  </symbol>
  <symbol xmlns="http://www.w3.org/2000/svg" viewBox="0 0 48 48" id="icon2">
    <g clip-path="url(#clip0_1_50)">
      <path opacity="0.15" d="M43.65 13.7502H4.35004C4.33204 13.7502 4.32004 13.7621 4.32004 13.7799V19.1851C4.32004 22.7294 7.26003 25.6039 10.878 25.6039C13.32 25.6039 15.45 24.3 16.584 22.3619C16.758 22.0597 17.088 21.87 17.442 21.87C17.796 21.87 18.12 22.0597 18.3 22.3619C19.428 24.3 21.558 25.6039 24 25.6039C26.448 25.6039 28.584 24.2941 29.706 22.3501C29.88 22.0537 30.198 21.87 30.54 21.87H30.576C30.924 21.87 31.236 22.0537 31.41 22.3501C32.538 24.2941 34.674 25.6039 37.122 25.6039C40.74 25.6039 43.68 22.7294 43.68 19.1851V13.7799C43.68 13.7621 43.668 13.7502 43.65 13.7502Z" fill="#00A0C1"></path>
      <path d="M46.2 9.48885V1.89659C46.2 0.847537 45.342 0 44.28 0H3.72003C2.65803 0 1.80004 0.847537 1.80004 1.89659V9.48885C0.798037 9.54812 3.71756e-05 10.372 3.71756e-05 11.3795V19.1851C-0.00380525 20.6197 0.290253 22.0398 0.864037 23.3576C1.12204 23.9622 1.44004 24.5311 1.80004 25.0705V45.518C1.80004 46.5612 2.65803 47.4146 3.72003 47.4146H44.28C45.342 47.4146 46.2 46.5671 46.2 45.518V25.0705C46.5657 24.5298 46.879 23.9563 47.136 23.3576C47.706 22.036 48 20.6313 48 19.1851V11.3795C48 10.372 47.202 9.54812 46.2 9.48885ZM6.12003 4.26732H41.88V9.48293H6.12003V4.26732ZM27.84 43.1532H20.16V36.9834H27.84V43.1532ZM41.904 43.1532H31.68V35.0868C31.68 34.0378 30.822 33.1902 29.76 33.1902H18.24C17.178 33.1902 16.32 34.0378 16.32 35.0868V43.1532H6.12003V28.7985C6.29403 28.8814 6.47403 28.9644 6.66003 29.0355C7.99803 29.5927 9.42003 29.8712 10.884 29.8712C12.348 29.8712 13.764 29.5927 15.108 29.0355C15.936 28.6918 16.716 28.2532 17.43 27.7257C17.442 27.7198 17.454 27.7198 17.466 27.7257C18.1822 28.2554 18.9622 28.6954 19.788 29.0355C21.126 29.5927 22.548 29.8712 24.012 29.8712C25.476 29.8712 26.892 29.5927 28.236 29.0355C29.064 28.6918 29.844 28.2532 30.558 27.7257C30.57 27.7198 30.582 27.7198 30.594 27.7257C31.3102 28.2554 32.0902 28.6954 32.916 29.0355C34.254 29.5927 35.676 29.8712 37.14 29.8712C38.604 29.8712 40.02 29.5927 41.364 29.0355C41.544 28.9585 41.724 28.8814 41.904 28.7985V43.1532V43.1532ZM43.68 19.1851C43.68 22.7294 40.74 25.6039 37.122 25.6039C34.674 25.6039 32.538 24.2941 31.41 22.3501C31.236 22.0537 30.924 21.87 30.576 21.87H30.54C30.198 21.87 29.88 22.0537 29.706 22.3501C29.1304 23.3417 28.2992 24.1652 27.297 24.7367C26.2948 25.3082 25.1572 25.6074 24 25.6039C21.558 25.6039 19.428 24.3 18.3 22.3619C18.12 22.0597 17.796 21.87 17.442 21.87C17.088 21.87 16.758 22.0597 16.584 22.3619C16.005 23.3498 15.1728 24.1695 14.1711 24.7387C13.1694 25.3078 12.0336 25.6062 10.878 25.6039C7.26003 25.6039 4.32003 22.7294 4.32003 19.1851V13.7799C4.32003 13.7621 4.33203 13.7502 4.35003 13.7502H43.65C43.668 13.7502 43.68 13.7621 43.68 13.7799V19.1851Z"></path>
    </g>
    <defs>
      <clipPath id="clip0_1_50">
        <rect width="48" height="47.4146" fill="white"></rect>
      </clipPath>
    </defs>
  </symbol>
  <symbol xmlns="http://www.w3.org/2000/svg" viewBox="0 0 48 38" id="icon3">
    <g clip-path="url(#clip0_1_58)">
      <path d="M29.1419 8.62415H41.1398V12.0695H29.1419V8.62415Z"></path>
      <path d="M29.1419 17.2375H41.1398V20.6829H29.1419V17.2375Z"></path>
      <path d="M29.1419 25.8506H41.1398V29.2959H29.1419V25.8506Z"></path>
      <path d="M44.5679 0.0111084H3.43234C2.52347 0.0120205 1.65208 0.375302 1.00941 1.02123C0.366737 1.66715 0.00528678 2.54295 0.00437927 3.45643V34.4643C0.00528678 35.3778 0.366737 36.2536 1.00941 36.8995C1.65208 37.5454 2.52347 37.9087 3.43234 37.9096H44.5679C45.4766 37.9082 46.3477 37.5448 46.9903 36.899C47.6329 36.2532 47.9945 35.3776 47.9958 34.4643V3.45643C47.9949 2.54295 47.6335 1.66715 46.9908 1.02123C46.3481 0.375302 45.4767 0.0120205 44.5679 0.0111084ZM3.43234 3.45643H22.2861V34.4643H3.43234V3.45643ZM25.7141 34.4643V3.45643H44.5679L44.5713 34.4643H25.7141Z"></path>
    </g>
    <defs>
      <clipPath id="clip0_1_58">
        <rect width="48" height="37.92" fill="white"></rect>
      </clipPath>
    </defs>
  </symbol>
   <symbol xmlns="http://www.w3.org/2000/svg" viewBox="0 0 49 48" id="icon4">
    <g clip-path="url(#clip0_1_97)">
      <g clip-path="url(#clip1_1_97)">
        <path d="M24.8406 22.8022C29.1448 22.8022 32.4925 19.3069 32.4925 15.0171C32.4925 10.7273 28.9854 7.39087 24.6812 7.39087C20.377 7.39087 17.0293 10.8862 17.0293 15.0171C17.0293 19.3069 20.5364 22.8022 24.8406 22.8022ZM24.6812 10.5685C24.8406 10.5685 24.8406 10.5685 24.6812 10.5685C27.2318 10.5685 29.3042 12.6339 29.3042 15.176C29.3042 17.7181 27.2318 19.6246 24.6812 19.6246C22.1305 19.6246 20.2176 17.5592 20.2176 15.176C20.2176 12.6339 22.2899 10.5685 24.6812 10.5685V10.5685Z" fill="#00A0C1"></path>
        <path d="M48.4339 21.8487C45.405 19.1477 41.4197 17.7178 37.2749 17.8767H35.9996C35.6808 19.1477 35.2025 20.2599 34.5648 21.2132C35.5213 21.0543 36.3184 21.0543 37.2749 21.0543C40.3038 20.8954 43.3327 21.8487 45.7239 23.5964V35.0357H48.9122V22.3253L48.4339 21.8487Z" fill="#00A0C1"></path>
        <path d="M33.6084 7.70814C34.4055 5.80158 36.6373 4.8483 38.7097 5.6427C40.6226 6.4371 41.5791 8.66141 40.782 10.7269C40.1444 12.1568 38.7097 13.1101 37.2749 13.1101C36.9561 13.1101 36.4779 13.1101 36.159 12.9512C36.3184 13.7456 36.3184 14.54 36.3184 15.1755V16.1288C36.6373 16.1288 36.9561 16.2876 37.2749 16.2876C41.2603 16.2876 44.4486 13.1101 44.4486 9.29693C44.4486 5.32494 41.2603 2.14734 37.4343 2.14734C34.8837 2.14734 32.6519 3.41838 31.3766 5.6427C32.1737 6.11934 32.9707 6.75486 33.6084 7.70814V7.70814Z" fill="#00A0C1"></path>
        <path d="M15.4351 21.3721C14.7975 20.4189 14.3192 19.3067 14.0004 18.0357H12.7251C8.58031 17.8768 4.59495 19.3067 1.56607 21.8488L1.08783 22.3254V35.0358H4.27612V23.5965C6.82675 21.8488 9.69621 20.8955 12.7251 21.0544C13.6816 21.0544 14.6381 21.2133 15.4351 21.3721Z" fill="#00A0C1"></path>
        <path d="M12.7251 16.1294C13.044 16.1294 13.3628 16.1294 13.6816 15.9705V15.0172C13.6816 14.2228 13.6816 13.4284 13.841 12.7929C13.5222 12.9518 13.044 12.9518 12.7251 12.9518C10.6527 12.9518 8.89917 11.2041 8.89917 9.13868C8.89917 7.07324 10.6527 5.32556 12.7251 5.32556C14.3193 5.32556 15.754 6.27884 16.3917 7.70876C17.0293 6.91436 17.9858 6.11996 18.7829 5.48444C16.7105 2.14796 12.4063 1.0358 9.05859 3.10124C5.71088 5.16668 4.59498 9.45644 6.66737 12.7929C7.94269 14.8584 10.1745 16.1294 12.7251 16.1294V16.1294Z" fill="#00A0C1"></path>
        <path d="M37.9126 31.3816L37.5938 30.905C34.4055 27.4096 29.9419 25.3442 25.1594 25.5031C20.377 25.3442 15.754 27.4096 12.5657 30.905L12.2469 31.3816V43.4565C12.2469 44.8864 13.3628 46.1574 14.9569 46.1574H35.362C36.7967 46.1574 38.072 44.8864 38.072 43.4565V31.3816H37.9126ZM34.7243 42.9798H15.4351V32.4938C17.9858 29.9517 21.4929 28.6807 25.1594 28.6807C28.6666 28.5218 32.1737 29.9517 34.7243 32.4938V42.9798Z" fill="#00A0C1"></path>
      </g>
    </g>
    <defs>
      <clipPath id="clip0_1_97">
        <rect width="48" height="48" fill="white" transform="translate(0.5)"></rect>
      </clipPath>
      <clipPath id="clip1_1_97">
        <rect width="48" height="44.2105" fill="white" transform="translate(1 2)"></rect>
      </clipPath>
    </defs>
  </symbol>
  <symbol xmlns="http://www.w3.org/2000/svg" viewBox="0 0 49 48" id="icon5">
    <g clip-path="url(#clip0_1_109)">
      <path d="M44.1502 22.2822C43.5747 22.2864 43.0047 22.3962 42.4674 22.6064L36.7271 17.8217C36.8684 17.3001 36.9689 16.7589 36.9689 16.1886C36.9689 12.8103 34.3022 10.095 30.9844 10.095C27.6667 10.095 25 12.8103 25 16.1886C25 17.1538 25.2394 18.0532 25.6272 18.8625L18.6636 27.2424C18.3849 27.1893 18.1022 27.1607 17.8186 27.1571C17.3902 27.1571 16.9856 27.2302 16.593 27.3374L10.4578 21.0903C10.5655 20.693 10.6373 20.281 10.6373 19.8447C10.6373 17.1441 8.50204 14.9699 5.84973 14.9699C3.19742 14.9699 1.06216 17.1441 1.06216 19.8447C1.06216 22.5454 3.19742 24.7196 5.84973 24.7196C6.27822 24.7196 6.68277 24.6465 7.07535 24.5393L13.2106 30.7864C13.0955 31.1914 13.0351 31.6104 13.0311 32.032C13.0311 34.7326 15.1663 36.9069 17.8186 36.9069C20.471 36.9069 22.6062 34.7326 22.6062 32.032C22.6062 31.4543 22.4913 30.9107 22.3118 30.3964L29.2849 22.0068C29.8282 22.1676 30.3908 22.2822 30.9844 22.2822C31.9291 22.2769 32.8589 22.0421 33.6966 21.5973L39.4393 26.382C39.3942 26.638 39.3686 26.8971 39.3627 27.1571C39.3627 29.8578 41.4979 32.032 44.1502 32.032C46.8026 32.032 48.9378 29.8578 48.9378 27.1571C48.9378 24.4564 46.8026 22.2822 44.1502 22.2822Z" fill="#00A0C1"></path>
    </g>
    <defs>
      <clipPath id="clip0_1_109">
        <rect width="48" height="48" fill="white" transform="translate(0.5)"></rect>
      </clipPath>
    </defs>
  </symbol>
  <symbol xmlns="http://www.w3.org/2000/svg" viewBox="0 0 49 48" id="icon6">
    <g clip-path="url(#clip0_1_116)">
      <path d="M16.0641 33.9949C15.2531 33.1802 15.6759 33.4099 13.7196 32.8839C12.832 32.6449 12.0517 32.1855 11.3461 31.6352L7.1116 42.0639C6.70187 43.0736 7.4672 44.1705 8.55174 44.1292L13.4695 43.9408L16.8519 47.5296C17.5985 48.3208 18.9089 48.0742 19.3187 47.0646L24.1767 35.1002C23.1649 35.6664 22.0421 35.9983 20.8811 35.9983C19.0611 35.9983 17.3512 35.2867 16.0641 33.9949ZM42.7276 42.0639L38.4931 31.6352C37.7875 32.1864 37.0072 32.6449 36.1196 32.8839C34.1531 33.4127 34.5843 33.1821 33.7751 33.9949C32.488 35.2867 30.7772 35.9983 28.9572 35.9983C27.7961 35.9983 26.6733 35.6655 25.6616 35.1002L30.5196 47.0646C30.9293 48.0742 32.2407 48.3208 32.9864 47.5296L36.3697 43.9408L41.2875 44.1292C42.372 44.1705 43.1373 43.0727 42.7276 42.0639ZM31.5463 31.8733C32.9724 30.4155 33.1357 30.5411 35.1667 29.9852C36.4631 29.6299 37.4767 28.5939 37.8239 27.2683C38.522 24.6058 38.3409 24.9274 40.2459 22.9792C41.1951 22.0089 41.5656 20.5942 41.2184 19.2686C40.5212 16.608 40.5203 16.9792 41.2184 14.3158C41.5656 12.9902 41.1951 11.5755 40.2459 10.6052C38.3409 8.65706 38.522 8.97769 37.8239 6.31613C37.4767 4.9905 36.4631 3.95456 35.1667 3.59925C32.5645 2.88581 32.8781 3.07238 30.9713 1.12331C30.0221 0.153002 28.638 -0.226685 27.3416 0.128627C24.7404 0.841127 25.1035 0.842064 22.4976 0.128627C21.2012 -0.226685 19.8171 0.152065 18.8679 1.12331C16.9629 3.07144 17.2765 2.88581 14.6735 3.59925C13.3771 3.95456 12.3635 4.9905 12.0163 6.31613C11.3191 8.97769 11.4992 8.65706 9.59427 10.6052C8.64507 11.5755 8.2736 12.9902 8.62174 14.3158C9.31894 16.9746 9.31987 16.6033 8.62174 19.2677C8.27454 20.5933 8.64507 22.008 9.59427 22.9792C11.4992 24.9274 11.3181 24.6058 12.0163 27.2683C12.3635 28.5939 13.3771 29.6299 14.6735 29.9852C16.7623 30.5571 16.9181 30.4671 18.2929 31.8733C19.5277 33.1361 21.4513 33.3621 22.9353 32.4189C23.5288 32.0405 24.2172 31.8396 24.9201 31.8396C25.623 31.8396 26.3114 32.0405 26.9048 32.4189C28.3879 33.3621 30.3115 33.1361 31.5463 31.8733ZM16.1145 16.4946C16.1145 11.523 20.0569 7.49269 24.9196 7.49269C29.7823 7.49269 33.7247 11.523 33.7247 16.4946C33.7247 21.4661 29.7823 25.4964 24.9196 25.4964C20.0569 25.4964 16.1145 21.4661 16.1145 16.4946Z" fill="#00A0C1"></path>
    </g>
    <defs>
      <clipPath id="clip0_1_116">
        <rect width="35.84" height="48" fill="white" transform="translate(7)"></rect>
      </clipPath>
    </defs>
  </symbol>
   <symbol xmlns="http://www.w3.org/2000/svg" viewBox="0 0 25 30" id="icon7">
    <g clip-path="url(#clip0_1_183)">
      <path d="M0.300003 0.799988L24.3 15.2L0.300003 29.6V0.799988Z"></path>
    </g>
    <defs>
      <clipPath id="clip0_1_183">
        <rect width="24" height="28.8" fill="white" transform="translate(0.300003 0.799988)"></rect>
      </clipPath>
    </defs>
  </symbol>
  <symbol xmlns="http://www.w3.org/2000/svg" viewBox="0 0 32 32" id="icon8">
    <path fill-rule="evenodd" clip-rule="evenodd" d="M18.2367 8.77151C17.7729 9.09308 17.2497 9.31905 16.6976 9.43623C16.1456 9.55342 15.5757 9.55949 15.0212 9.45407C14.4668 9.34865 13.9389 9.13385 13.4684 8.82223C12.9979 8.5106 12.5941 8.10838 12.2807 7.63904C11.9673 7.1697 11.7505 6.64263 11.643 6.08861C11.5354 5.53458 11.5393 4.96468 11.6544 4.41218C11.7695 3.85967 11.9935 3.33562 12.3133 2.8706C12.6331 2.40559 13.0423 2.00893 13.517 1.70376C14.4544 1.08466 15.5986 0.861813 16.6998 1.08393C17.8009 1.30605 18.7693 1.95506 19.3933 2.88911C20.0173 3.82315 20.2462 4.96625 20.0298 6.06853C19.8135 7.17081 19.1696 8.14262 18.2388 8.77151H18.2367ZM17.0573 3.47176C16.8259 3.30528 16.5633 3.18706 16.2853 3.12415C16.0072 3.06124 15.7193 3.05493 15.4388 3.10558C15.1583 3.15622 14.8908 3.26281 14.6523 3.41897C14.4138 3.57514 14.2091 3.7777 14.0505 4.0146C13.8919 4.25149 13.7826 4.51788 13.7291 4.79789C13.6756 5.07791 13.679 5.36583 13.739 5.64451C13.7991 5.92319 13.9146 6.18694 14.0788 6.42004C14.2429 6.65315 14.4522 6.85086 14.6943 7.00139C15.162 7.28552 15.7214 7.37824 16.2558 7.26023C16.7902 7.14222 17.2585 6.82258 17.563 6.36789C17.8676 5.9132 17.985 5.35852 17.8908 4.81941C17.7966 4.2803 17.498 3.79833 17.0573 3.47389V3.47176ZM22.6036 3.53551C23.2164 3.12326 23.9539 2.93762 24.6889 3.01054C25.4239 3.08346 26.1105 3.41038 26.6304 3.93501C27.0009 4.30848 27.2741 4.76715 27.426 5.27079C27.578 5.77443 27.604 6.30766 27.5018 6.82371C27.3997 7.33975 27.1724 7.82284 26.8401 8.23061C26.5077 8.63838 26.0804 8.95837 25.5956 9.16251C25.0133 9.40598 24.3715 9.47011 23.7526 9.34669C23.1336 9.22328 22.5656 8.91794 22.1212 8.46976C21.7872 8.13405 21.5315 7.72865 21.3725 7.28259C21.2135 6.83653 21.155 6.36083 21.2013 5.88954C21.2476 5.41825 21.3975 4.96302 21.6403 4.55643C21.8831 4.14984 22.2127 3.80194 22.6057 3.53764L22.6036 3.53551ZM23.6236 6.95676C23.8231 7.15543 24.0933 7.2667 24.3749 7.2661C24.5143 7.2658 24.6523 7.23805 24.7809 7.18443C24.9096 7.13081 25.0265 7.05236 25.1249 6.95357C25.2232 6.85479 25.3012 6.73759 25.3543 6.60868C25.4073 6.47977 25.4345 6.34167 25.4342 6.20226C25.4339 6.06285 25.4062 5.92486 25.3525 5.79618C25.2989 5.66749 25.2205 5.55063 25.1217 5.45226C24.9238 5.25328 24.6564 5.13899 24.3758 5.13351C24.2357 5.13323 24.0968 5.16073 23.9674 5.21442C23.8379 5.26811 23.7204 5.34694 23.6216 5.44633C23.5228 5.54573 23.4447 5.66372 23.3918 5.7935C23.3388 5.92327 23.3122 6.06224 23.3133 6.20239C23.314 6.48539 23.4253 6.7569 23.6236 6.95889V6.95676ZM5.65455 25.3975H9.5008V27.5331H5.65455C4.98123 27.5271 4.3378 27.2542 3.8653 26.7745C3.39099 26.293 3.12533 25.6441 3.1258 24.9683V21.122C2.8397 21.1124 2.5585 21.045 2.29919 20.9237C2.03988 20.8025 1.80783 20.6299 1.61705 20.4165C1.41433 20.2112 1.25524 19.967 1.14934 19.6985C1.04343 19.4301 0.992909 19.1431 1.0008 18.8546V14.2179C1.00718 13.2149 1.40455 12.2565 2.1058 11.5446C2.80493 10.8413 3.75055 10.4396 4.7408 10.4333H8.6508C8.1234 11.0614 7.72612 11.788 7.48205 12.571H4.7408C4.30951 12.5834 3.89915 12.7597 3.5933 13.064C3.29287 13.3729 3.1251 13.787 3.1258 14.2179V18.9609H5.2508V24.9661C5.24587 25.024 5.25275 25.0823 5.27101 25.1375C5.28928 25.1926 5.31855 25.2435 5.35705 25.287C5.44247 25.353 5.54664 25.3902 5.65455 25.3933V25.3975ZM21.167 11.5468C20.8193 11.1957 20.4057 10.9167 19.9498 10.726C19.494 10.5353 19.0049 10.4365 18.5108 10.4354H13.2408C12.2502 10.4433 11.3029 10.8428 10.6058 11.5468C9.90455 12.2586 9.50718 13.217 9.5008 14.22V20.9733C9.4978 21.5531 9.71853 22.1118 10.1171 22.533C10.3081 22.7462 10.5402 22.9185 10.7994 23.0397C11.0587 23.161 11.3398 23.2286 11.6258 23.2385V28.1749C11.6238 28.5118 11.6885 28.8458 11.8161 29.1576C11.9438 29.4695 12.1319 29.7529 12.3696 29.9918C12.7521 30.3488 13.2344 30.5804 13.7508 30.6548H18.0008C18.5985 30.5763 19.1461 30.2797 19.5384 29.8219C19.9306 29.3642 20.1398 28.7776 20.1258 28.1749V23.2364C20.4119 23.2268 20.6931 23.1594 20.9524 23.0381C21.2117 22.9169 21.4438 22.7443 21.6346 22.5309C21.8371 22.3259 21.9961 22.082 22.102 21.814C22.2079 21.5459 22.2585 21.2592 22.2508 20.9711V14.2179C22.2523 13.2195 21.8633 12.2601 21.167 11.5446V11.5468ZM20.1258 21.0774H18.0008V28.1749C17.9987 28.2869 17.953 28.3937 17.8733 28.4724C17.837 28.5153 17.7913 28.5492 17.7396 28.5713C17.688 28.5935 17.6319 28.6032 17.5758 28.5999H14.1546C14.0435 28.5947 13.9384 28.5483 13.8598 28.4697C13.7812 28.3911 13.7347 28.2859 13.7296 28.1749V21.0774H11.6258V14.2179C11.6258 13.7865 11.7937 13.3721 12.0933 13.064C12.3992 12.7597 12.8095 12.5834 13.2408 12.571H18.5108C18.8327 12.5767 19.146 12.6762 19.4121 12.8574C19.6782 13.0386 19.8857 13.2936 20.0089 13.591C20.0898 13.7899 20.1296 14.0032 20.1258 14.2179V21.0774ZM26.0971 27.531H22.2508V25.3954H26.0758C26.1837 25.3924 26.2879 25.3552 26.3733 25.2891C26.4161 25.2473 26.4496 25.1969 26.4715 25.1413C26.4935 25.0856 26.5035 25.0259 26.5008 24.9661V18.9609H28.6258V14.2179C28.6265 13.787 28.4587 13.3729 28.1583 13.064C27.8524 12.7597 27.4421 12.5834 27.0108 12.571H24.2696C24.0256 11.788 23.6283 11.0613 23.1008 10.4333H27.0108C28.0012 10.4423 28.9481 10.8417 29.6458 11.5446C30.347 12.2565 30.7444 13.2149 30.7508 14.2179V18.8546C30.7508 19.4348 30.5319 19.9915 30.1367 20.4123C29.7414 20.8351 29.2017 21.088 28.6258 21.1199V24.9661C28.6258 25.644 28.3602 26.2921 27.8863 26.7724C27.4138 27.2521 26.7704 27.5249 26.0971 27.531ZM7.3758 2.99576C6.74346 2.99503 6.12531 3.18314 5.60057 3.536C5.07583 3.88885 4.66842 4.39037 4.43055 4.97626C4.19049 5.56195 4.12817 6.20536 4.25136 6.82623C4.37456 7.4471 4.67781 8.01797 5.1233 8.46764C5.56863 8.91678 6.13774 9.22298 6.75793 9.34712C7.37812 9.47126 8.02124 9.4077 8.60514 9.16456C9.18903 8.92142 9.68719 8.50975 10.036 7.98212C10.3848 7.45449 10.5684 6.83486 10.5633 6.20239C10.5633 5.35239 10.2276 4.53639 9.6283 3.93501C9.33323 3.63779 8.98233 3.40181 8.59577 3.24063C8.20921 3.07944 7.79462 2.99622 7.3758 2.99576ZM7.3758 7.27126C7.23565 7.27155 7.09684 7.24405 6.96739 7.19035C6.83793 7.13666 6.72041 7.05784 6.6216 6.95844C6.5228 6.85905 6.44468 6.74105 6.39176 6.61128C6.33885 6.48151 6.31218 6.34253 6.3133 6.20239C6.31385 5.92017 6.42577 5.64959 6.62473 5.44944C6.82368 5.24928 7.0936 5.13575 7.3758 5.13351C7.65714 5.13847 7.92548 5.25287 8.12386 5.45244C8.32223 5.652 8.43503 5.92102 8.4383 6.20239C8.43775 6.4846 8.32583 6.75519 8.12688 6.95534C7.92792 7.15549 7.658 7.26902 7.3758 7.27126Z" fill="#FFA62B"></path>
  </symbol>
  <symbol xmlns="http://www.w3.org/2000/svg" viewBox="0 0 32 32" id="icon9">
    <g clip-path="url(#clip0_1_198)">
      <path d="M29.8154 10.3646L27.8167 13.3708C28.7806 15.2933 29.2525 17.4249 29.1901 19.5746C29.1277 21.7243 28.5329 23.825 27.4592 25.6883H4.93666C3.54106 23.2672 2.96277 20.4609 3.28751 17.6853C3.61226 14.9097 4.82277 12.3126 6.73956 10.2791C8.65636 8.2456 11.1774 6.88388 13.929 6.39581C16.6806 5.90775 19.5162 6.31934 22.0154 7.56956L25.0217 5.57081C21.9609 3.60816 18.3304 2.72869 14.7109 3.07308C11.0913 3.41747 7.69176 4.96581 5.05609 7.47045C2.42042 9.97509 0.700875 13.2913 0.172515 16.8886C-0.355844 20.486 0.337506 24.1566 2.14166 27.3133C2.42524 27.8045 2.83243 28.2129 3.32276 28.498C3.81309 28.7831 4.36949 28.9349 4.93666 28.9383H27.4429C28.0156 28.9406 28.5787 28.7915 29.0752 28.5061C29.5718 28.2208 29.9841 27.8093 30.2704 27.3133C31.7676 24.7197 32.519 21.7627 32.4416 18.769C32.3642 15.7752 31.461 12.8611 29.8317 10.3483L29.8154 10.3646ZM13.9067 21.4796C14.2085 21.7817 14.5669 22.0214 14.9615 22.185C15.356 22.3486 15.7789 22.4327 16.206 22.4327C16.6331 22.4327 17.056 22.3486 17.4506 22.185C17.8451 22.0214 18.2036 21.7817 18.5054 21.4796L27.7029 7.68331L13.9067 16.8808C13.6045 17.1826 13.3648 17.5411 13.2012 17.9356C13.0377 18.3302 12.9535 18.7531 12.9535 19.1802C12.9535 19.6073 13.0377 20.0302 13.2012 20.4247C13.3648 20.8193 13.6045 21.1777 13.9067 21.4796Z" fill="#FFA62B"></path>
    </g>
    <defs>
      <clipPath id="clip0_1_198">
        <rect width="32" height="32" fill="white"></rect>
      </clipPath>
    </defs>
  </symbol>
    <symbol xmlns="http://www.w3.org/2000/svg" viewBox="0 0 18 28" id="icon10">
    <path d="M17.0607 13.1L0.960713 0.525C0.918644 0.491879 0.868085 0.471296 0.814844 0.465614C0.761603 0.459932 0.707839 0.469382 0.659727 0.492879C0.611615 0.516375 0.571107 0.552966 0.542853 0.598447C0.514599 0.643929 0.499745 0.696457 0.499999 0.75V3.51071C0.499999 3.68571 0.582142 3.85357 0.717857 3.96071L13.575 14L0.717857 24.0393C0.578571 24.1464 0.499999 24.3143 0.499999 24.4893V27.25C0.499999 27.4893 0.774999 27.6214 0.960713 27.475L17.0607 14.9C17.1976 14.7933 17.3083 14.6567 17.3844 14.5008C17.4605 14.3448 17.5001 14.1735 17.5001 14C17.5001 13.8265 17.4605 13.6552 17.3844 13.4992C17.3083 13.3433 17.1976 13.2067 17.0607 13.1Z" fill="#00A0C1"></path>
  </symbol>
  <symbol xmlns="http://www.w3.org/2000/svg" viewBox="0 0 18 28" id="icon11">
    <path d="M17.5714 3.51071V0.75C17.5714 0.510714 17.2964 0.378571 17.1107 0.524999L1.01071 13.1C0.873921 13.2064 0.763234 13.3426 0.687095 13.4983C0.610956 13.6539 0.571376 13.8249 0.571376 13.9982C0.571376 14.1715 0.610956 14.3425 0.687095 14.4982C0.763234 14.6538 0.873921 14.79 1.01071 14.8964L17.1107 27.4714C17.3 27.6179 17.5714 27.4857 17.5714 27.2464V24.4857C17.5714 24.3107 17.4893 24.1429 17.3536 24.0357L4.49643 14L17.3536 3.96071C17.4893 3.85357 17.5714 3.68571 17.5714 3.51071Z" fill="#00A0C1"></path>
  </symbol>
   <symbol xmlns="http://www.w3.org/2000/svg" viewBox="0 0 77 73" id="icon12">
    <path d="M67.926 28.1614C65.5311 28.1614 63.4235 29.1556 61.8748 30.7111C56.1748 26.7503 48.4949 24.2006 39.9848 23.928L44.4075 3.91556L58.4899 7.09061C58.4899 10.5543 61.3 13.3766 64.7487 13.3766C68.2613 13.3766 71.0874 10.4741 71.0874 7.01043C71.0874 3.54674 68.2773 0.644287 64.7487 0.644287C62.2899 0.644287 60.1664 2.1356 59.1126 4.17213L43.5613 0.70843C42.779 0.499966 42.0126 1.06121 41.805 1.84696L36.9512 23.912C28.505 24.2648 20.905 26.8144 15.1891 30.7752C13.6403 29.1556 11.4529 28.1614 9.05796 28.1614C0.180651 28.1614 -2.72523 40.124 5.40166 44.2131C5.11426 45.4799 4.98653 46.8269 4.98653 48.1739C4.98653 61.6118 20.0588 72.5 38.5638 72.5C57.1487 72.5 72.221 61.6118 72.221 48.1739C72.221 46.8269 72.0773 45.4158 71.726 44.149C79.6933 40.0438 76.7554 28.1614 67.926 28.1614V28.1614ZM18.2865 45.063C18.2865 41.5351 21.0966 38.6968 24.6252 38.6968C28.0739 38.6968 30.884 41.5191 30.884 45.063C30.884 48.5267 28.0739 51.349 24.6252 51.349C21.1126 51.365 18.2865 48.5267 18.2865 45.063V45.063ZM52.5025 60.0563C46.6907 65.8933 30.2933 65.8933 24.4815 60.0563C23.8428 59.4951 23.8428 58.5008 24.4815 57.8594C25.0403 57.2982 26.0302 57.2982 26.5891 57.8594C31.0277 62.4296 45.7487 62.5098 50.379 57.8594C50.9378 57.2982 51.9277 57.2982 52.4865 57.8594C53.1412 58.5008 53.1412 59.4951 52.5025 60.0563ZM52.3748 51.365C48.926 51.365 46.1159 48.5427 46.1159 45.079C46.1159 41.5512 48.926 38.7129 52.3748 38.7129C55.8874 38.7129 58.7134 41.5351 58.7134 45.079C58.6975 48.5267 55.8874 51.365 52.3748 51.365Z" fill="#737373"></path>
  </symbol>
  <symbol xmlns="http://www.w3.org/2000/svg" viewBox="0 0 105 63" id="icon13">
    <path d="M29.8871 22.9886C29.7705 26.6267 31.6043 28.2378 31.6496 29.2609C31.628 29.4692 31.5565 29.6693 31.4409 29.8445C31.3254 30.0197 31.1692 30.1649 30.9855 30.268L28.9119 31.7072C28.6436 31.8937 28.3273 32.0007 27.9999 32.0156C27.9303 32.0124 26.6732 32.3095 24.6823 27.9021C23.4676 29.4054 21.9222 30.6133 20.1642 31.4332C18.4062 32.2531 16.4823 32.6633 14.5398 32.6324C11.9026 32.7753 4.75542 31.1482 5.12315 23.6038C4.86558 17.4552 10.6407 13.6356 16.6134 13.9585C17.7635 13.9617 20.1124 14.0179 24.2255 14.9656V12.4567C24.6612 8.20662 21.8441 4.90905 16.9665 5.40377C16.5777 5.40537 13.8238 5.32346 9.54072 7.02765C8.34845 7.57055 8.19617 7.48061 7.79929 7.48061C6.59891 7.48061 7.09299 4.03045 7.32302 3.59356C8.16701 2.56558 13.1321 0.64615 18.0049 0.673455C21.263 0.387753 24.5036 1.38477 27.0263 3.449C28.0518 4.58633 28.8341 5.91795 29.3261 7.36344C29.8181 8.80892 30.0095 10.3383 29.8888 11.8592L29.8871 22.9886V22.9886ZM15.8876 28.1912C21.1411 28.1157 23.3653 24.9836 23.8723 23.297C24.2708 21.6828 24.2044 20.6612 24.2044 18.896C22.6379 18.5234 20.383 18.117 17.7959 18.1138C15.3417 17.9307 10.8593 19.0181 11.0343 23.2954C10.8334 25.9923 12.8357 28.3389 15.8876 28.1912V28.1912ZM43.5756 31.8935C42.3023 32.0092 41.7094 31.1129 41.5215 30.2279L33.4542 3.78149C33.2971 3.33496 33.1934 2.87397 33.1432 2.40335C33.1135 2.20933 33.1626 2.01152 33.2798 1.8534C33.3971 1.69528 33.5729 1.58979 33.7685 1.56009C33.8074 1.55366 33.4235 1.56009 37.3729 1.56009C38.7952 1.41874 39.2585 2.52864 39.4059 3.22574L45.1923 25.8461L50.564 3.22574C50.6499 2.70853 51.0403 1.44765 52.6375 1.58097H55.4174C55.7689 1.55206 57.2171 1.50066 57.4714 3.24662L62.8853 26.1561L68.858 3.24662C68.9357 2.89646 69.2986 1.42035 70.9121 1.58097H74.1066C74.2443 1.56009 75.1028 1.45086 74.957 2.9591C74.8874 3.25625 75.5094 1.24688 66.4119 30.2487C66.2256 31.1338 65.6311 32.03 64.3578 31.9144H61.3301C59.5579 32.0991 59.3036 30.3628 59.276 30.1877L53.9043 8.16164L48.5942 30.1652C48.5683 30.3403 48.3139 32.0766 46.5401 31.8919H43.5756V31.8935ZM87.8777 32.7978C86.9251 32.7994 82.3828 32.7496 78.5857 30.8238C78.2075 30.665 77.8853 30.3984 77.66 30.0578C77.4348 29.7172 77.3166 29.318 77.3205 28.9108V27.1841C77.3205 25.8268 78.3249 26.0758 78.7509 26.238C80.3773 26.8901 81.4206 27.3849 83.418 27.78C89.355 28.9895 91.9664 27.4106 92.6063 27.0604C94.7365 25.8059 94.905 22.9356 93.4567 21.4467C91.759 20.0348 90.9491 19.9818 84.85 18.0736C84.0983 17.8664 77.7709 15.8875 77.7563 9.66346C77.6575 5.1275 81.8142 0.639724 89.0181 0.676667C91.0706 0.675061 96.5395 1.34004 98.0201 3.18558C98.2388 3.52128 98.3473 3.91641 98.3311 4.31636V5.94024C98.3311 6.6534 98.0687 7.00998 97.5422 7.00998C96.2932 6.87185 94.0772 5.21584 89.5786 5.2833C88.4625 5.22548 83.1167 5.42947 83.3564 9.29403C83.2868 12.3394 87.6671 13.4814 88.1676 13.6131C94.0739 15.3752 96.0486 15.6675 98.3927 18.3643C101.169 21.9382 99.6724 26.1224 99.0974 27.2692C96.0065 33.2909 88.0137 32.801 87.8777 32.7978V32.7978ZM94.3898 49.6406C83.0454 57.948 66.5771 62.3699 52.516 62.3699C33.5434 62.4939 15.2102 55.5767 1.12028 42.978C0.062465 42.032 0.995549 40.7357 2.28178 41.4569C17.9117 50.3219 35.608 54.9798 53.6144 54.9684C67.061 54.8969 80.361 52.1922 92.7504 47.0096C94.6587 46.2065 96.277 48.2625 94.3898 49.6406V49.6406ZM99.1184 44.2935C97.6669 42.4431 89.5154 43.4294 85.8657 43.8614C84.7658 43.9851 84.5795 43.0391 85.5757 42.3403C92.0668 37.8156 102.728 39.1118 103.952 40.6329C105.175 42.154 103.62 52.7454 97.5438 57.805C96.6107 58.5872 95.7182 58.1744 96.1329 57.1465C97.5001 53.7333 100.57 46.1455 99.1184 44.2935Z" fill="#737373"></path>
  </symbol>
  <symbol xmlns="http://www.w3.org/2000/svg" viewBox="0 0 103 43" id="icon14">
    <path d="M26.5555 3.79318L19.5869 5.25682L19.5547 27.9114C19.5547 32.0955 22.7413 34.8 26.9739 34.8C29.3236 34.8 31.0457 34.3705 31.9952 33.8614V28.4841C31.0778 28.85 26.5716 30.1545 26.5716 25.9864V15.9318H31.9952V9.91818H26.5716L26.5555 3.79318ZM40.895 12.0023L40.4605 9.91818H34.2805V34.2909H41.41V17.8886C43.0999 15.6932 45.9485 16.1227 46.8658 16.4091V9.91818C45.9002 9.58409 42.5688 8.96364 40.895 12.0023ZM55.7496 0.5L48.5717 2.01136V7.77045L55.7496 6.25909V0.5ZM7.2269 17.0932C7.2269 15.9955 8.16034 15.5659 9.65706 15.55C11.8297 15.55 14.5978 16.2023 16.7705 17.3636V10.7136C14.4047 9.79091 12.0389 9.425 9.67315 9.425C3.8794 9.425 0.0168991 12.4159 0.0168991 17.4114C0.0168991 25.2386 10.8802 23.9659 10.8802 27.3386C10.8802 28.6432 9.73753 29.0727 8.14424 29.0727C5.77846 29.0727 2.72065 28.1023 0.32268 26.8136V33.1773C2.97815 34.3068 5.66581 34.7841 8.12815 34.7841C14.0667 34.7841 18.1546 32.2705 18.1546 27.1795C18.1546 18.7636 7.2269 20.275 7.2269 17.0932V17.0932ZM103.001 22.3909C103.001 15.1523 99.4602 9.44091 92.6686 9.44091C85.8771 9.44091 81.741 15.1523 81.741 22.3432C81.741 30.8545 86.6174 34.7841 93.5699 34.7841C96.9818 34.7841 99.5407 34.0205 101.488 32.9545V27.6409C99.5407 28.6114 97.3036 29.2 94.4711 29.2C91.6869 29.2 89.2407 28.2295 88.9188 24.9205H102.904C102.936 24.5545 103.001 23.075 103.001 22.3909V22.3909ZM88.8544 19.7182C88.8544 16.5364 90.8339 15.2 92.6204 15.2C94.3746 15.2 96.2414 16.5364 96.2414 19.7182H88.8544ZM70.6846 9.44091C67.8843 9.44091 66.0817 10.7455 65.0839 11.6523L64.7138 9.90227H58.4211V42.4841L65.5667 40.9886L65.5828 33.0023C66.6128 33.75 68.1417 34.7841 70.6363 34.7841C75.7541 34.7841 80.4213 31.0932 80.4213 22.1205C80.4374 13.9114 75.7058 9.44091 70.6846 9.44091V9.44091ZM68.9786 28.9295C67.3049 28.9295 66.3071 28.325 65.615 27.5932L65.5667 17.0932C66.3071 16.2818 67.3371 15.6932 68.9786 15.6932C71.5858 15.6932 73.3883 18.5886 73.3883 22.2795C73.4044 26.0818 71.6341 28.9295 68.9786 28.9295ZM48.5878 34.2909H55.7657V9.91818H48.5878V34.2909Z" fill="#737373"></path>
  </symbol>
  <symbol xmlns="http://www.w3.org/2000/svg" viewBox="0 0 102 75" id="icon15">
    <path d="M102 0.145813C89.1225 8.82832 87.7519 15.1296 86.6362 17.0573C85.5684 19.0335 84.7716 26.8251 82.9228 30.5994C81.0581 34.4223 74.2847 37.4352 72.3881 38.6987C70.5234 39.9622 67.8778 44.8704 65.7103 49.0983C48.4819 48.3856 39.0309 55.3834 24.4003 64.2603C29.0859 62.689 31.3012 61.5551 31.3012 61.5551C46.3144 55.7236 53.5022 50.4914 76.1016 53.5853C76.2769 53.5853 76.4044 53.6825 76.5478 53.7149C77.1694 54.0713 77.3925 54.8326 77.0419 55.4644L68.4516 70.9827C68.0531 71.7441 67.2084 72.149 66.3637 71.9709C46.155 68.1156 30.2016 74.7732 15.5391 74.9838C3.84094 75.162 0 69.5573 0 69.2981C0 69.1199 0.095625 69.0227 0.270938 69.0227C0.270938 69.0227 6.375 69.0227 16.7025 66.5443C28.4325 43.8175 38.8875 35.864 50.2669 35.864C50.2669 35.864 61.6941 35.864 64.7062 45.891C68.34 39.4601 69.2166 37.9212 69.2166 37.9212C70.0612 36.3985 74.7947 25.4158 82.9866 15.0162C91.1944 4.64905 97.3941 2.07346 102 0.145813V0.145813Z" fill="#737373"></path>
  </symbol>
  <symbol  xmlns="http://www.w3.org/2000/svg" viewBox="0 0 84 59" id="icon16">
    <path d="M0.5 0.995296H13.1121V35.0099C13.1121 40.4047 15.5438 43.6155 17.5215 44.9519C15.4627 46.761 9.22148 48.3583 4.52031 44.4956C1.76445 42.2138 0.5 38.4163 0.5 34.8795V0.995296ZM79.2689 29.2729V25.6873H83.1272V13.1702H78.8961C77.2588 5.62403 70.5961 0.017395 62.6365 0.017395C53.4611 0.017395 45.9879 7.51463 45.9879 16.7558V45.9624C48.5816 46.3373 51.7266 45.9135 54.3689 43.6807C57.141 41.3989 58.3893 37.6177 58.3893 34.0646V32.9726H64.6791V20.4555H58.3893V16.658C58.3893 11.0188 66.8514 11.0188 66.8514 16.658V29.224C66.8514 38.4489 74.3084 45.9624 83.5 45.9624V33.4942C81.1494 33.4942 79.2689 31.5873 79.2689 29.2729V29.2729ZM31.5602 13.1376V31.5547C31.5602 34.0646 27.702 34.0646 27.702 31.5547V13.1376H15.252V34.7655C15.252 38.6445 16.5488 43.5666 22.5469 45.1801C28.5449 46.7773 31.9816 43.4525 31.9816 43.4525C31.6412 45.6365 29.6311 47.25 26.324 47.576C23.8113 47.8367 20.6178 46.9892 19.0291 46.3047V57.7624C23.098 58.9848 27.3777 59.3597 31.6088 58.5284C39.2441 57.0453 44.0588 50.64 44.0588 42.0997V13.0561H31.5602V13.1376V13.1376Z" fill="#737373"></path>
  </symbol>
  <symbol  xmlns="http://www.w3.org/2000/svg" viewBox="0 0 103 35" id="icon17">
    <path d="M23.2554 32.4249L29.4193 32.5526C27.2949 31.8183 25.2349 30.9244 23.2554 29.8709V32.4249ZM32.5415 31.5789V32.4249L29.4193 32.5526C35.2935 34.5479 40.6688 34.8193 44.6601 33.7019C41.4574 33.7338 37.2892 33.2869 32.5415 31.5789ZM98.3488 13.1901C100.908 13.1901 103 11.131 103 8.577C103 6.02301 100.924 4.6662 98.3488 4.6662C95.7899 4.6662 93.6977 6.03897 93.6977 8.577C93.6977 11.115 95.7738 13.1901 98.3488 13.1901ZM93.6816 32.4249H103V14.7864H93.6816V32.4249ZM81.8206 32.4249H91.1388V1.25024L81.8206 5.60799V32.4249ZM76.8315 13.3657C73.9024 10.4606 68.7202 10.6362 68.7202 10.6362C68.7202 10.6362 63.522 10.4606 60.609 13.3657C57.6799 16.2709 57.9052 18.777 57.9052 21.762C57.9052 24.747 57.6799 27.2371 60.609 30.1423C63.5381 33.0474 68.7202 32.8718 68.7202 32.8718C68.7202 32.8718 73.9185 33.0474 76.8315 30.1423C79.7606 27.2371 79.5353 24.747 79.5353 21.762C79.5192 18.761 79.7445 16.2549 76.8315 13.3657ZM70.4262 24.8427C70.4262 25.4174 70.1365 26.838 68.7042 26.838C67.2718 26.838 66.9821 25.4174 66.9821 24.8427V18.3939C66.9821 17.0052 68.157 16.654 68.7042 16.654C69.2513 16.654 70.4262 16.9892 70.4262 18.3939V24.8427ZM53.3346 13.3657C50.4056 10.4606 45.2234 10.6362 45.2234 10.6362C45.2234 10.6362 40.0412 10.4606 37.1121 13.3657C36.8063 13.669 36.5167 13.9883 36.2592 14.3235C30.1113 9.5986 24.5912 6.90094 19.8274 4.57043V1.2662L16.2063 2.95822C7.45135 -0.569481 1.88291 0.0530559 0.547129 2.97418C0.547129 2.97418 -3.46021 8.20986 10.4931 20.6606V32.4249H19.8113V27.8596C18.7653 27.1892 17.7192 26.4709 16.6892 25.6887C14.3073 23.9009 12.2795 22.2409 10.5092 20.6765V15.7282C12.6174 18.0747 15.4178 20.7404 19.1032 23.7573L19.8274 24.3319V19.5751C19.8274 18.4737 20.101 16.67 21.5656 16.67C23.0301 16.67 23.2715 17.7714 23.2715 19.0643V26.838C26.1684 28.7855 29.2745 30.3657 32.5576 31.5629V16.5742C32.5576 13.5892 30.401 10.6042 26.0235 10.6042C23.4807 10.5883 21.1149 11.9132 19.8274 14.1V5.4324C26.5707 8.76855 33.3301 12.8549 35.9051 14.7385C34.2635 17.069 34.4084 19.2239 34.4084 21.7141C34.4084 24.6991 34.1831 27.1892 37.1121 30.0944C40.0412 32.9995 45.2234 32.824 45.2234 32.824C45.2234 32.824 50.4217 32.9995 53.3346 30.0944C56.2637 27.1892 56.0223 24.6991 56.0223 21.7141C56.0223 18.761 56.2637 16.2549 53.3346 13.3657V13.3657ZM10.4931 5.60799V15.7122C2.65541 7.01268 4.2326 3.58076 4.82807 3.08592C7.00072 1.2662 10.8632 1.80892 15.1924 3.42113L10.4931 5.60799ZM46.9454 24.8427C46.9454 25.4174 46.6557 26.838 45.2234 26.838C43.791 26.838 43.5013 25.4174 43.5013 24.8427V18.3939C43.5013 17.0052 44.6762 16.654 45.2234 16.654C45.7706 16.654 46.9454 16.9892 46.9454 18.3939V24.8427Z" fill="#737373"></path>
  </symbol>
  <symbol xmlns="http://www.w3.org/2000/svg" viewBox="0 0 73 72" id="icon18">
    <g clip-path="url(#clip0_1_250)">
      <path d="M56.9295 38.9947C56.578 38.6426 56.1605 38.3632 55.7009 38.1726C55.2413 37.982 54.7487 37.8839 54.2511 37.8839C53.7536 37.8839 53.2609 37.982 52.8013 38.1726C52.3417 38.3632 51.9242 38.6426 51.5727 38.9947L45.534 45.0334C42.7344 44.1999 37.5102 42.3057 34.1992 38.9947C30.8881 35.6836 28.9939 30.4594 28.1605 27.6598L34.1992 21.6211C34.5513 21.2696 34.8306 20.8521 35.0212 20.3925C35.2118 19.9329 35.3099 19.4403 35.3099 18.9427C35.3099 18.4452 35.2118 17.9525 35.0212 17.4929C34.8306 17.0333 34.5513 16.6159 34.1992 16.2643L19.0456 1.11076C18.6941 0.758646 18.2766 0.479298 17.817 0.288701C17.3574 0.0981045 16.8647 0 16.3672 0C15.8696 0 15.377 0.0981045 14.9174 0.288701C14.4578 0.479298 14.0403 0.758646 13.6888 1.11076L3.41467 11.3849C1.97508 12.8245 1.16436 14.802 1.19467 16.8212C1.2818 22.2159 2.71003 40.9533 17.4772 55.7204C32.2443 70.4876 50.9817 71.912 56.3802 72.003H56.4863C58.4865 72.003 60.377 71.215 61.809 69.783L72.0831 59.5088C72.4352 59.1573 72.7146 58.7398 72.9052 58.2802C73.0957 57.8207 73.1938 57.328 73.1938 56.8304C73.1938 56.3329 73.0957 55.8402 72.9052 55.3807C72.7146 54.9211 72.4352 54.5036 72.0831 54.1521L56.9295 38.9947ZM56.4484 64.4224C51.7205 64.3428 35.544 63.0737 22.834 50.3599C10.0822 37.6081 8.84722 21.3749 8.77146 16.7417L16.3672 9.14594L26.164 18.9427L21.2656 23.8411C20.8203 24.2861 20.4929 24.835 20.313 25.4382C20.1331 26.0414 20.1063 26.68 20.2351 27.2961C20.3261 27.7318 22.5498 38.0627 28.8386 44.3515C35.1273 50.6402 45.4583 52.864 45.8939 52.9549C46.5097 53.0874 47.1489 53.0627 47.7527 52.8833C48.3565 52.7039 48.9054 52.3755 49.3489 51.9283L54.2511 47.0299L64.0479 56.8267L56.4484 64.4224Z"></path>
    </g>
    <defs>
      <clipPath id="clip0_1_250">
        <rect width="72" height="72" fill="white" transform="translate(0.5)"></rect>
      </clipPath>
    </defs>
  </symbol>
  <symbol xmlns="http://www.w3.org/2000/svg" viewBox="0 0 73 72" id="icon19">
    <path d="M29.5 42C37.4967 42 44 35.721 44 28C44 20.279 37.4967 14 29.5 14C21.5032 14 15 20.279 15 28C15 35.721 21.5032 42 29.5 42ZM29.5 21C33.4984 21 36.75 24.1395 36.75 28C36.75 31.8605 33.4984 35 29.5 35C25.5016 35 22.25 31.8605 22.25 28C22.25 24.1395 25.5016 21 29.5 21Z"></path>
    <path d="M27.4338 70.3403C28.0367 70.7693 28.7591 71 29.5 71C30.2409 71 30.9633 70.7693 31.5662 70.3403C32.6492 69.577 58.103 51.2624 57.9997 28.4002C57.9997 12.7411 45.214 0 29.5 0C13.786 0 1.00031 12.7411 1.00031 28.3825C0.897002 51.2624 26.3508 69.577 27.4338 70.3403ZM29.5 7.10006C41.2882 7.10006 50.8748 16.6532 50.8748 28.418C50.9496 44.173 35.2427 58.3199 29.5 62.9598C23.7609 58.3163 8.05042 44.1659 8.12524 28.4002C8.12524 16.6532 17.7118 7.10006 29.5 7.10006Z"></path>
  </symbol>
  <symbol xmlns="http://www.w3.org/2000/svg" viewBox="0 0 73 72" id="icon20">
    <g clip-path="url(#clip0_1_271)">
      <path d="M70.3484 2.16199C69.9592 1.75903 69.4674 1.48003 68.9308 1.35781C68.3943 1.23558 67.8354 1.27521 67.3198 1.47202L3.8615 25.4708C3.31422 25.6867 2.84305 26.0706 2.51056 26.5716C2.17807 27.0726 2 27.6669 2 28.2756C2 28.8844 2.17807 29.4787 2.51056 29.9797C2.84305 30.4807 3.31422 30.8646 3.8615 31.0805L31.5524 42.5999L42.6287 71.3984C42.8368 71.9426 43.1935 72.4115 43.6549 72.7473C44.1162 73.0832 44.6619 73.2712 45.2248 73.2883C45.8077 73.2759 46.3733 73.08 46.847 72.7266C47.3207 72.3732 47.6804 71.8787 47.8785 71.3084L70.9542 5.31183C71.1507 4.78108 71.1981 4.20317 71.0909 3.64548C70.9836 3.08779 70.7261 2.5733 70.3484 2.16199ZM45.2248 61.8889L37.1771 40.89L50.9937 26.5207L46.9266 22.291L32.9946 36.7802L12.9187 28.2906L63.4834 9.30162L45.2248 61.8889Z" ></path>
    </g>
    <defs>
      <clipPath id="clip0_1_271">
        <rect width="72" height="72" fill="white" transform="translate(0.5)"></rect>
      </clipPath>
    </defs>
  </symbol>
   <symbol xmlns="http://www.w3.org/2000/svg" viewBox="0 0 24 18" id="icon21">
    <g clip-path="url(#clip0_1_299)">
      <path d="M23.4699 2.93179C23.3335 2.39882 23.0663 1.91289 22.6951 1.52261C22.324 1.13234 21.8619 0.851413 21.355 0.707956C19.4884 0.176758 11.9879 0.176758 11.9879 0.176758C11.9879 0.176758 4.48729 0.176758 2.62071 0.707956C2.11385 0.851413 1.65172 1.13234 1.28057 1.52261C0.90941 1.91289 0.642248 2.39882 0.50582 2.93179C0.157288 4.93347 -0.0118455 6.96513 0.000644257 9.00005C-0.0118455 11.035 0.157288 13.0666 0.50582 15.0683C0.642248 15.6013 0.90941 16.0872 1.28057 16.4775C1.65172 16.8678 2.11385 17.1487 2.62071 17.2921C4.48729 17.8233 11.9879 17.8233 11.9879 17.8233C11.9879 17.8233 19.4884 17.8233 21.355 17.2921C21.8619 17.1487 22.324 16.8678 22.6951 16.4775C23.0663 16.0872 23.3335 15.6013 23.4699 15.0683C23.8184 13.0666 23.9876 11.035 23.9751 9.00005C23.9876 6.96513 23.8184 4.93347 23.4699 2.93179ZM9.59041 12.7815V5.21864L15.8152 9.00005L9.59041 12.7815Z" fill="#E42F08"></path>
    </g>
    <defs>
      <clipPath id="clip0_1_299">
        <rect width="24" height="17.6842" fill="white" transform="translate(0 0.157959)"></rect>
      </clipPath>
    </defs>
  </symbol>
  <symbol xmlns="http://www.w3.org/2000/svg" viewBox="0 0 24 20" id="icon22">
    <g clip-path="url(#clip0_1_297)">
      <path d="M24.0004 2.46548C23.1188 2.85141 22.1594 3.12917 21.1711 3.23735C22.1971 2.61879 22.9655 1.64156 23.332 0.489007C22.3692 1.07022 21.3145 1.47778 20.2146 1.6936C19.7549 1.19488 19.1989 0.797581 18.5813 0.526453C17.9636 0.255325 17.2976 0.116179 16.6247 0.117688C13.902 0.117688 11.7123 2.3573 11.7123 5.10564C11.7123 5.49158 11.7584 5.87752 11.8333 6.24884C7.7565 6.03248 4.12048 4.05601 1.7032 1.0299C1.26274 1.79335 1.03193 2.66261 1.03477 3.54727C1.03477 5.27814 1.902 6.80435 3.22444 7.70195C2.44511 7.6708 1.68402 7.45342 1.00308 7.06749V7.12889C1.00308 9.5527 2.69143 11.5613 4.94161 12.0233C4.51912 12.1347 4.08449 12.1916 3.64797 12.1929C3.32817 12.1929 3.02565 12.1607 2.72024 12.1168C3.34257 14.0933 5.15482 15.5289 7.3128 15.5757C5.62444 16.9177 3.50968 17.7071 1.2134 17.7071C0.801397 17.7071 0.421085 17.6925 0.0263672 17.6457C2.20452 19.0637 4.78891 19.8824 7.5721 19.8824C16.6074 19.8824 21.5514 12.2864 21.5514 5.69332C21.5514 5.47696 21.5514 5.2606 21.537 5.04424C22.4936 4.33377 23.332 3.45371 24.0004 2.46548Z" fill="#21A6DF"></path>
    </g>
    <defs>
      <clipPath id="clip0_1_297">
        <rect width="24" height="19.7647" fill="white" transform="translate(0 0.117676)"></rect>
      </clipPath>
    </defs>
  </symbol>
  <symbol xmlns="http://www.w3.org/2000/svg" viewBox="0 0 24 24" id="icon23">
    <g clip-path="url(#clip0_1_295)">
      <path d="M12.0018 5.84744C8.59677 5.84744 5.84877 8.59544 5.84877 12.0004C5.84877 15.4054 8.59677 18.1534 12.0018 18.1534C15.4068 18.1534 18.1548 15.4054 18.1548 12.0004C18.1548 8.59544 15.4068 5.84744 12.0018 5.84744ZM12.0018 15.9994C9.79977 15.9994 8.00277 14.2024 8.00277 12.0004C8.00277 9.79844 9.79977 8.00144 12.0018 8.00144C14.2038 8.00144 16.0008 9.79844 16.0008 12.0004C16.0008 14.2024 14.2038 15.9994 12.0018 15.9994ZM18.4068 4.16144C17.6118 4.16144 16.9698 4.80344 16.9698 5.59844C16.9698 6.39344 17.6118 7.03544 18.4068 7.03544C19.2018 7.03544 19.8438 6.39644 19.8438 5.59844C19.844 5.40966 19.807 5.22269 19.7349 5.04824C19.6627 4.87379 19.5569 4.71528 19.4234 4.5818C19.2899 4.44831 19.1314 4.34247 18.957 4.27034C18.7825 4.19821 18.5955 4.1612 18.4068 4.16144ZM23.9958 12.0004C23.9958 10.3444 24.0108 8.70344 23.9178 7.05044C23.8248 5.13044 23.3868 3.42644 21.9828 2.02244C20.5758 0.615437 18.8748 0.180437 16.9548 0.0874372C15.2988 -0.00556279 13.6578 0.00943725 12.0048 0.00943725C10.3488 0.00943725 8.70777 -0.00556279 7.05477 0.0874372C5.13477 0.180437 3.43077 0.618437 2.02677 2.02244C0.619771 3.42944 0.184771 5.13044 0.0917707 7.05044C-0.00122929 8.70644 0.0137708 10.3474 0.0137708 12.0004C0.0137708 13.6534 -0.00122929 15.2974 0.0917707 16.9504C0.184771 18.8704 0.622771 20.5744 2.02677 21.9784C3.43377 23.3854 5.13477 23.8204 7.05477 23.9134C8.71077 24.0064 10.3518 23.9914 12.0048 23.9914C13.6608 23.9914 15.3018 24.0064 16.9548 23.9134C18.8748 23.8204 20.5788 23.3824 21.9828 21.9784C23.3898 20.5714 23.8248 18.8704 23.9178 16.9504C24.0138 15.2974 23.9958 13.6564 23.9958 12.0004ZM21.3558 19.0744C21.1368 19.6204 20.8728 20.0284 20.4498 20.4484C20.0268 20.8714 19.6218 21.1354 19.0758 21.3544C17.4978 21.9814 13.7508 21.8404 12.0018 21.8404C10.2528 21.8404 6.50277 21.9814 4.92477 21.3574C4.37877 21.1384 3.97077 20.8744 3.55077 20.4514C3.12777 20.0284 2.86377 19.6234 2.64477 19.0774C2.02077 17.4964 2.16177 13.7494 2.16177 12.0004C2.16177 10.2514 2.02077 6.50144 2.64477 4.92344C2.86377 4.37744 3.12777 3.96944 3.55077 3.54944C3.97377 3.12944 4.37877 2.86244 4.92477 2.64344C6.50277 2.01944 10.2528 2.16044 12.0018 2.16044C13.7508 2.16044 17.5008 2.01944 19.0788 2.64344C19.6248 2.86244 20.0328 3.12644 20.4528 3.54944C20.8758 3.97244 21.1398 4.37744 21.3588 4.92344C21.9828 6.50144 21.8418 10.2514 21.8418 12.0004C21.8418 13.7494 21.9828 17.4964 21.3558 19.0744Z" fill="#E61F5A"></path>
    </g>
    <defs>
      <clipPath id="clip0_1_295">
        <rect width="24" height="24" fill="white"></rect>
      </clipPath>
    </defs>
  </symbol>
  <symbol xmlns="http://www.w3.org/2000/svg" viewBox="0 0 24 24" id="icon24">
    <g clip-path="url(#clip0_1_293)">
      <path d="M23.04 0H0.96C0.429 0 0 0.429 0 0.96V23.04C0 23.571 0.429 24 0.96 24H23.04C23.571 24 24 23.571 24 23.04V0.96C24 0.429 23.571 0 23.04 0ZM20.268 7.005H18.351C16.848 7.005 16.557 7.719 16.557 8.769V11.082H20.145L19.677 14.703H16.557V24H12.816V14.706H9.687V11.082H12.816V8.412C12.816 5.313 14.709 3.624 17.475 3.624C18.801 3.624 19.938 3.723 20.271 3.768V7.005H20.268Z" fill="#335BF5"></path>
    </g>
    <defs>
      <clipPath id="clip0_1_293">
        <rect width="24" height="24" fill="white"></rect>
      </clipPath>
    </defs>
  </symbol>
</svg>